<svg width="16" height="16" viewBox="0 0 16 16" fill="none" xmlns="http://www.w3.org/2000/svg">
<rect width="16" height="16" fill="black"/>
<path fill-rule="evenodd" clip-rule="evenodd" d="M5.11532 11.419C5.79644 11.419 6.51207 11.3439 7.26189 11.1942V9.98779C6.42365 10.1859 5.76255 10.2845 5.2789 10.2845C4.18127 10.2845 3.63292 9.98471 3.63292 9.38461V6.56338C3.63292 6.37269 3.67204 6.21742 3.7506 6.0982C3.82854 5.97898 3.94807 5.89212 4.10826 5.83759C4.26845 5.78306 4.42155 5.74917 4.5682 5.73531C4.71453 5.72175 4.90399 5.71498 5.13564 5.71498C5.7148 5.71498 6.40978 5.81048 7.22091 6.00117V4.80496C6.32137 4.65525 5.6193 4.58008 5.11532 4.58008C3.06393 4.58008 2.03809 5.24826 2.03809 6.58371V9.49735C2.03809 9.82452 2.10956 10.1092 2.25281 10.351C2.39605 10.5928 2.57134 10.7801 2.77928 10.9129C2.98722 11.046 3.23921 11.1517 3.53588 11.2299C3.83223 11.3085 4.10148 11.3593 4.34331 11.3833C4.58514 11.407 4.84237 11.419 5.11532 11.419ZM13.1397 11.3169H8.28401V4.68245H9.87884V10.182H13.1397V11.3169ZM13.3076 5.51904V4.8527H13.4712L13.6397 5.38504L13.8022 4.8527H13.9624V5.51904H13.8613V4.95991L13.6893 5.51904H13.589L13.41 4.95159V5.51904H13.3076ZM12.9045 5.51904V4.95159H12.6888V4.8527H13.2332V4.95159H13.0156V5.51904H12.9045Z" fill="white"/>
</svg>
