<svg width="28" height="28" viewBox="0 0 28 28" fill="none" xmlns="http://www.w3.org/2000/svg">
<path d="M6.32617 19.5789C6.79729 20.373 7.37806 21.1024 8.05515 21.7442C9.46429 23.0798 11.2303 23.9784 13.1394 24.3314C15.0486 24.6844 17.0192 24.4765 18.8127 23.733C20.6062 22.9895 22.1458 21.7422 23.2453 20.142C24.3448 18.5418 24.957 16.6572 25.0079 14.7164C25.0588 12.7755 24.5461 10.8615 23.532 9.2059C22.5179 7.55029 21.0457 6.22403 19.2936 5.38758C17.9733 4.75726 16.5366 4.42544 15.085 4.4082L15.6753 6.61158C16.6016 6.6954 17.5103 6.94309 18.3578 7.3477C19.7311 8.0033 20.885 9.0428 21.6798 10.3404C22.4747 11.6381 22.8765 13.1383 22.8366 14.6595C22.7967 16.1807 22.3169 17.6577 21.4551 18.912C20.5934 20.1662 19.3866 21.1438 17.9809 21.7265C16.5752 22.3093 15.0307 22.4722 13.5343 22.1956C12.0379 21.9189 10.6538 21.2146 9.54932 20.1677C9.16943 19.8077 8.82823 19.4124 8.52954 18.9885L6.32617 19.5789Z" fill="black"/>
<path d="M11.985 3.32676C11.8261 2.73378 11.7467 2.43729 11.4939 2.30775C11.2411 2.17821 10.9727 2.27978 10.436 2.48292C9.26809 2.92492 8.16897 3.53629 7.17464 4.29926C5.84113 5.3225 4.72222 6.59837 3.8818 8.05403C3.04137 9.50969 2.49589 11.1166 2.27649 12.7831C2.1129 14.0257 2.133 15.2833 2.33416 16.5157C2.42662 17.0821 2.47284 17.3653 2.71142 17.5194C2.94999 17.6736 3.24648 17.5941 3.83946 17.4352L13.7301 14.785C14.3129 14.6289 14.6043 14.5508 14.7369 14.3212C14.8694 14.0917 14.7914 13.8002 14.6352 13.2174L11.985 3.32676Z" fill="#F4F4F4" stroke="black" stroke-width="2.55989"/>
</svg>
