<?xml version="1.0" encoding="UTF-8" standalone="no"?>
<svg
   xmlns:dc="http://purl.org/dc/elements/1.1/"
   xmlns:cc="http://creativecommons.org/ns#"
   xmlns:rdf="http://www.w3.org/1999/02/22-rdf-syntax-ns#"
   xmlns:svg="http://www.w3.org/2000/svg"
   xmlns="http://www.w3.org/2000/svg"
   xmlns:sodipodi="http://sodipodi.sourceforge.net/DTD/sodipodi-0.dtd"
   xmlns:inkscape="http://www.inkscape.org/namespaces/inkscape"
   width="927"
   height="162"
   viewBox="0 0 927 162"
   fill="none"
   version="1.1"
   id="svg34"
   sodipodi:docname="Group.svg"
   inkscape:version="0.92.4 (5da689c313, 2019-01-14)">
  <metadata
     id="metadata38">
    <rdf:RDF>
      <cc:Work
         rdf:about="">
        <dc:format>image/svg+xml</dc:format>
        <dc:type
           rdf:resource="http://purl.org/dc/dcmitype/StillImage" />
      </cc:Work>
    </rdf:RDF>
  </metadata>
  <sodipodi:namedview
     pagecolor="#ffffff"
     bordercolor="#666666"
     borderopacity="1"
     objecttolerance="10"
     gridtolerance="10"
     guidetolerance="10"
     inkscape:pageopacity="0"
     inkscape:pageshadow="2"
     inkscape:window-width="1920"
     inkscape:window-height="1001"
     id="namedview36"
     showgrid="false"
     inkscape:zoom="1.0343439"
     inkscape:cx="559.12621"
     inkscape:cy="172.68561"
     inkscape:window-x="-9"
     inkscape:window-y="-9"
     inkscape:window-maximized="1"
     inkscape:current-layer="svg34" />
  <path
     d="M3.0488 143.678C3.0488 143.678 -4.3542 152.162 6.55548 158.526C6.55548 158.526 11.7506 161.637 25.6474 161.637C39.5443 161.637 909.202 161.637 909.202 161.637C909.202 161.637 935.048 159.657 924.138 144.526C913.618 129.537 3.0488 143.678 3.0488 143.678Z"
     fill="#FF5300"
     id="path2" />
  <path
     d="M203.969 0.96875H719.062C730.492 0.96875 742.83 3.30654 746.856 6.4236L920.632 139.678C931.152 147.73 924.268 154.614 904.657 154.614H22.1411C2.52964 154.614 -4.48374 147.73 5.77657 139.678L176.305 6.4236C180.202 3.30654 192.54 0.96875 203.969 0.96875Z"
     fill="black"
     id="path4" />
  <path
     d="M223.84 37.9844H279.687C286.051 37.9844 290.078 39.5429 288.779 41.4911L280.856 53.3099C279.428 55.5178 272.674 57.2062 265.92 57.2062H205.787C199.034 57.2062 195.137 55.3879 197.345 53.3099L208.904 41.4911C210.853 39.5429 217.476 37.9844 223.84 37.9844Z"
     fill="url(#paint0_linear_580_188928)"
     stroke="#666666"
     stroke-width="1.2602"
     id="path6" />
  <path
     fill-rule="evenodd"
     clip-rule="evenodd"
     d="M259.946 41.8807C258.518 40.1923 255.141 38.8935 252.803 38.374C252.673 38.374 252.543 38.2441 252.543 38.2441C252.543 38.2441 252.673 38.1143 252.803 38.1143C252.933 38.1143 253.193 37.9844 253.453 37.9844C253.712 37.9844 253.842 37.9844 254.102 37.9844C257.349 38.6338 260.466 40.1923 261.765 41.6209C261.765 41.6209 261.765 41.6209 261.765 41.7508C261.765 41.7508 261.765 41.8807 261.635 41.8807C261.635 41.8807 261.505 41.8807 261.375 42.0106C261.245 42.0106 261.115 42.0106 261.115 42.0106C260.985 42.0106 260.856 42.0106 260.726 42.0106C260.596 42.0106 260.466 42.0106 260.336 42.0106C260.076 42.0106 260.076 41.8807 259.946 41.8807ZM227.477 50.3227C225.269 52.9203 230.334 55.9074 234.75 56.9465C234.88 56.9465 234.88 56.9465 235.01 57.0763C235.01 57.0763 235.14 57.0763 235.14 57.2062C235.14 57.2062 235.14 57.3361 235.01 57.3361C235.01 57.3361 234.88 57.466 234.75 57.466C234.62 57.466 234.49 57.5958 234.361 57.5958C234.231 57.5958 234.101 57.5958 233.841 57.5958C233.711 57.5958 233.581 57.5958 233.451 57.5958C228.776 56.5568 223.711 53.4398 225.659 50.7123H200.203C199.943 50.7123 199.813 50.7123 199.683 50.5825C199.553 50.5825 199.553 50.4526 199.683 50.4526C199.683 50.3227 199.943 50.3227 200.073 50.3227C200.203 50.3227 200.463 50.1928 200.722 50.1928H226.178C229.295 48.5044 230.854 46.5563 230.854 44.8679H205.917C205.658 44.8679 205.528 44.8679 205.398 44.738C205.268 44.738 205.268 44.6081 205.268 44.6081C205.398 44.4782 205.528 44.4782 205.658 44.4782C205.917 44.4782 206.047 44.3484 206.307 44.3484H231.114C233.841 41.7508 243.452 39.0234 249.426 38.1143C249.686 38.1143 249.816 38.1143 250.076 38.1143C250.335 38.1143 250.465 38.1143 250.465 38.2441C250.465 38.2441 250.465 38.374 250.335 38.374C250.206 38.374 250.076 38.5039 249.816 38.5039C244.101 39.413 234.49 42.1405 232.412 44.4782C232.802 46.2965 230.984 48.3746 227.477 50.3227ZM283.065 49.9331H257.479C257.219 48.2447 258.648 46.2965 261.505 44.6081H286.571C286.831 44.6081 286.961 44.6081 287.221 44.4782C287.35 44.4782 287.48 44.3484 287.61 44.3484C287.61 44.2185 287.61 44.2185 287.48 44.2185C287.35 44.2185 287.221 44.0886 286.961 44.0886H261.375C261.245 44.0886 260.985 44.0886 260.856 44.0886C260.726 44.0886 260.596 44.2185 260.466 44.2185C257.219 46.1666 255.531 48.1148 255.92 50.063C253.972 52.6605 243.842 55.6477 237.867 56.6867C237.737 56.6867 237.608 56.6867 237.478 56.8166C237.348 56.8166 237.348 56.8166 237.218 56.9465L237.088 57.0763V57.2062C237.088 57.2062 237.218 57.3361 237.348 57.3361C237.478 57.3361 237.608 57.3361 237.737 57.3361C237.867 57.3361 237.997 57.3361 238.257 57.3361C244.751 56.2971 254.881 53.18 257.349 50.4526H282.805C283.065 50.4526 283.194 50.4526 283.454 50.3227C283.584 50.3227 283.714 50.1928 283.844 50.1928C283.844 50.063 283.844 50.063 283.714 50.063C283.454 50.063 283.324 49.9331 283.065 49.9331ZM249.816 39.2831C250.076 39.2831 250.335 39.1533 250.725 39.1533C251.115 39.1533 251.374 39.1533 251.634 39.2831C251.894 39.413 251.894 39.413 251.764 39.5429C251.634 39.6728 251.504 39.6728 251.374 39.8027C251.115 39.9325 250.855 39.9325 250.595 39.9325C250.335 39.9325 249.946 39.9325 249.686 39.9325C249.426 39.9325 249.167 39.9325 249.037 39.8027C248.907 39.8027 248.777 39.6728 248.777 39.5429C248.777 39.413 248.907 39.413 249.037 39.2831C249.296 39.413 249.556 39.2831 249.816 39.2831Z"
     fill="#666666"
     id="path8" />
  <path
     d="M307.351 45.6463C307.222 45.5164 307.092 45.5164 307.092 45.3865C307.092 45.2566 307.092 45.2566 307.222 45.1268C307.481 44.9969 307.871 44.7371 308.39 44.6072C308.91 44.4774 309.559 44.4774 310.209 44.4774C310.858 44.4774 311.248 44.6072 311.508 44.7371C312.157 45.1268 312.547 45.5164 312.806 45.906C313.066 46.2956 313.066 46.8152 312.806 47.3347C312.547 47.8542 312.027 48.2438 311.378 48.7633C310.728 49.1529 309.819 49.5426 308.65 49.9322C308.131 50.0621 307.611 50.192 306.962 50.192C306.312 50.192 305.663 50.192 305.273 50.0621C304.884 49.9322 304.624 49.8023 304.624 49.5426C304.624 49.4127 304.884 49.153 305.403 49.0231C306.053 48.7633 306.702 48.5036 307.222 48.2438C307.741 47.984 308.131 47.5944 308.261 47.3347C308.39 47.0749 308.52 46.6853 308.261 46.4255C308.131 46.1658 307.871 45.906 307.351 45.6463ZM316.053 44.3475C317.352 45.2566 317.742 46.2956 317.092 47.3347C316.573 48.3737 315.014 49.5426 312.676 50.4517C312.417 50.5816 312.287 50.5816 312.157 50.7115C312.027 50.8413 312.027 50.9712 312.027 50.9712C312.027 51.1011 312.157 51.1011 312.287 51.231C312.417 51.3609 312.676 51.3609 312.806 51.4907C313.066 51.4907 313.326 51.6206 313.586 51.6206C313.845 51.6206 314.235 51.6206 314.495 51.6206C314.754 51.6206 315.144 51.6206 315.404 51.4907C315.664 51.4907 315.923 51.3609 316.183 51.231C319.04 50.0621 320.989 48.7633 321.638 47.3347C322.417 46.0359 321.898 44.7371 320.209 43.5682C320.079 43.4383 319.95 43.4383 319.69 43.3085C319.43 43.3085 319.17 43.1786 318.911 43.1786C318.651 43.1786 318.261 43.1786 318.001 43.1786C317.742 43.1786 317.352 43.1786 317.092 43.3085C316.832 43.3085 316.573 43.4383 316.313 43.4383C316.053 43.5682 315.923 43.5682 315.793 43.6981C315.664 43.828 315.664 43.828 315.664 43.9579C315.923 44.0877 315.923 44.2176 316.053 44.3475ZM325.145 42.9188C326.963 44.2176 327.482 45.7761 326.703 47.3347C325.924 48.8932 323.846 50.4517 320.469 51.8804C320.209 52.0102 320.079 52.0102 320.079 52.1401C319.95 52.27 319.95 52.3999 319.95 52.3999C319.95 52.5298 320.079 52.5298 320.209 52.6596C320.339 52.7895 320.599 52.7895 320.859 52.9194C321.118 52.9194 321.378 53.0493 321.638 53.0493C321.898 53.0493 322.287 53.0493 322.547 53.0493C322.807 53.0493 323.196 52.9194 323.456 52.9194C323.716 52.9194 323.976 52.7895 324.235 52.6596C328.002 51.1011 330.47 49.2828 331.379 47.3347C332.288 45.5164 331.638 43.828 329.431 42.2695C329.171 42.1396 328.781 42.0097 328.132 42.0097C327.612 42.0097 326.963 42.0097 326.314 42.1396C325.794 42.2695 325.275 42.3993 325.015 42.5292C324.885 42.6591 324.885 42.789 325.145 42.9188ZM334.106 41.6201C336.444 43.3085 337.223 45.2566 336.314 47.3347C335.405 49.4127 332.677 51.4907 328.521 53.309C328.262 53.4389 328.132 53.4389 328.132 53.5688C328.002 53.6987 328.002 53.8285 328.002 53.8285C328.002 53.9584 328.132 53.9584 328.262 54.0883C328.392 54.2182 328.651 54.2182 328.911 54.2182C329.171 54.2182 329.431 54.348 329.69 54.348C329.95 54.348 330.34 54.348 330.599 54.348C330.859 54.348 331.249 54.2182 331.509 54.2182C331.768 54.2182 332.028 54.0883 332.158 53.9584C336.834 51.8804 339.821 49.5426 340.86 47.2048C341.899 44.867 340.99 42.6591 338.392 40.8408C338.132 40.7109 337.743 40.581 337.223 40.4512C336.704 40.4512 336.054 40.4512 335.535 40.4512C335.015 40.581 334.496 40.7109 334.236 40.8408C333.976 41.2304 333.846 41.4902 334.106 41.6201Z"
     fill="white"
     id="path10" />
  <path
     opacity="0.6"
     d="M202.8 0.96875H720.361C731.141 0.96875 742.83 3.17667 746.466 6.03397L921.801 140.457C931.801 148.12 925.307 154.484 906.865 154.484H20.0628C1.6202 154.484 -5.00354 147.99 4.73726 140.457L176.825 6.03397C180.461 3.17667 192.02 0.96875 202.8 0.96875Z"
     fill="url(#paint1_linear_580_188928)"
     id="path12" />
  <defs
     id="defs32">
    <linearGradient
       id="paint0_linear_580_188928"
       x1="185.397"
       y1="60.3805"
       x2="299.568"
       y2="35.9756"
       gradientUnits="userSpaceOnUse">
      <stop
         stop-color="#DDD9D6"
         id="stop14" />
      <stop
         offset="0.2128"
         stop-color="#8A868C"
         id="stop16" />
      <stop
         offset="0.5484"
         stop-color="#F2F3F3"
         stop-opacity="0.8"
         id="stop18" />
      <stop
         offset="0.9143"
         stop-color="#807C80"
         id="stop20" />
      <stop
         offset="1"
         stop-color="#A6A8AB"
         id="stop22" />
    </linearGradient>
    <linearGradient
       id="paint1_linear_580_188928"
       x1="734.073"
       y1="380.089"
       x2="-35.2477"
       y2="49.8344"
       gradientUnits="userSpaceOnUse">
      <stop
         stop-color="white"
         stop-opacity="0.5"
         id="stop25" />
      <stop
         offset="0.39"
         stop-color="white"
         stop-opacity="0.33"
         id="stop27" />
      <stop
         offset="1"
         stop-color="white"
         stop-opacity="0"
         id="stop29" />
    </linearGradient>
  </defs>
  <g
     style="fill:none"
     id="g883"
     transform="translate(705.39961,104.27456)">
    <path
       id="path845"
       d="M 1.16034,3.33578 18.7212,2.99307 c 2.2462,-0.04384 4.7993,0.63675 6.1571,1.96673 L 37.4184,16.506 38.5283,2.60652 49.3506,2.39532 46.9198,22.8942 35.8932,23.1094 16.3332,7.21345 C 15.1945,6.19223 14.3629,5.89542 12.6414,5.51164 9.67984,4.83902 5.15775,4.30121 1.19011,3.96126"
       inkscape:connector-curvature="0"
       style="fill:#ffffff" />
    <path
       id="path847"
       d="M 101.871,15.1457 C 98.0738,9.79395 83.3568,9.76812 81.6772,7.40098 81.166,6.68055 82.0841,5.93222 84.7968,5.67059 86.1532,5.53978 90.1641,5.35716 95.6639,6.39761 L 94.4345,2.03915 C 91.6921,1.67529 88.0598,1.22445 84.1801,1.30017 73.9703,1.49942 68.7951,4.41771 71.3659,8.33263 73.4107,11.2144 79.684,12.7614 84.221,13.612 c 4.8142,0.9495 6.4775,1.5431 7.0618,2.3665 0.9493,1.3379 -1.8797,2.0192 -4.7384,2.075 -5.1049,0.0996 -8.679,-0.5611 -11.4945,-1.0278 l 1.3023,4.4614 c 2.8155,0.4667 7.673,0.8937 12.1653,0.806 11.0996,-0.1123 16.3475,-2.9277 13.3535,-7.1474 z"
       inkscape:connector-curvature="0"
       style="fill:#ffffff" />
    <path
       id="path849"
       d="m 133.499,21.2045 9.597,-0.1873 -22.685,-20.00877 -8.781,0.17135 c -2.042,0.03985 -3.237,0.68924 -3.47,1.52853 l -2.301,18.93129 10.823,-0.2112 0.128,-3.0286 13.273,-0.259 z"
       inkscape:connector-curvature="0"
       style="fill:#ffffff" />
    <path
       id="path851"
       d="m 116.952,14.2221 -0.022,-7.61673 8.598,7.44933 z"
       inkscape:connector-curvature="0"
       style="fill:#424242" />
    <path
       id="path853"
       d="m 64.2559,2.10596 5.737,20.33954 -10.414,0.2032 -5.737,-20.33951 z"
       inkscape:connector-curvature="0"
       style="fill:#ffffff" />
    <path
       id="path855"
       d="m 99.9862,27.0774 c 0.9478,-0.1228 2.3778,-0.1507 3.6028,-0.1746 2.45,-0.0478 4.507,0.2251 6.097,0.7158 1.591,0.4906 2.992,1.2981 3.795,2.4302 0.803,1.1321 0.848,2.0703 -0.143,2.7157 -0.787,0.6414 -2.742,1.097 -5.396,1.1488 -1.225,0.0239 -2.246,0.0438 -3.34,-0.0392 l -4.82,-6.7927 z m 5.9418,6.0404 c 0.409,-0.008 1.021,-0.0199 1.838,-0.0359 3.88,-0.0757 5.192,-1.1447 3.877,-2.9973 -1.168,-1.6467 -3.736,-2.64 -7.412,-2.5683 -0.817,0.016 -1.634,0.0319 -1.969,0.1428 l 3.871,5.4547 z"
       inkscape:connector-curvature="0"
       style="fill:#ffffff" />
    <path
       id="path857"
       d="m 118.034,31.2104 c 0.877,1.235 2.875,1.7178 4.713,1.6819 1.225,-0.0239 1.969,-0.1428 2.509,-0.2576 l 0.846,0.6095 c -0.539,0.1149 -1.414,0.3406 -3.048,0.3725 -3.063,0.0598 -5.631,-0.9335 -6.653,-2.3744 -1.096,-1.5438 -0.061,-2.7118 2.797,-2.7675 3.268,-0.0638 5.107,1.3611 5.764,2.2874 0.146,0.2058 0.219,0.3087 0.292,0.4117 l -7.147,0.1394 z m 4.871,-0.7211 c -0.365,-0.5146 -1.431,-1.4329 -3.473,-1.3931 -1.837,0.0359 -2.07,0.8752 -1.632,1.4927 z"
       inkscape:connector-curvature="0"
       style="fill:#ffffff" />
    <path
       id="path859"
       d="m 124.328,26.0781 1.838,-0.0358 2.191,3.0875 c 0.247,-0.5265 1.18,-0.9621 2.61,-0.99 2.45,-0.0478 4.814,0.9495 5.836,2.3904 1.242,1.7496 -0.347,2.7197 -2.593,2.7635 -1.43,0.0279 -2.874,-0.2569 -3.925,-0.8625 l 0.38,0.8274 -1.225,0.0239 c -0.219,-0.3088 -0.584,-0.8234 -0.876,-1.2351 z m 5.635,5.316 c 0.073,0.1029 0.146,0.2058 0.219,0.3087 0.847,0.6096 2.16,1.0013 3.385,0.9774 1.838,-0.0359 2.552,-0.7802 1.676,-2.0152 -0.731,-1.0292 -2.336,-1.8327 -4.174,-1.7968 -1.225,0.0239 -1.954,0.4555 -1.851,1.1839 0.073,0.103 0.146,0.2059 0.292,0.4117 l 0.657,0.9263 z"
       inkscape:connector-curvature="0"
       style="fill:#ffffff" />
    <path
       id="path861"
       d="m 139.077,26.7325 c 0.219,0.3087 -0.043,0.5225 -0.86,0.5385 -0.613,0.0119 -1.167,-0.1859 -1.386,-0.4947 -0.219,-0.3087 0.043,-0.5226 0.656,-0.5345 0.817,-0.0159 1.371,0.1819 1.59,0.4907 z m -1.019,1.4807 1.837,-0.0359 3.506,4.9402 -1.838,0.0358 z"
       inkscape:connector-curvature="0"
       style="fill:#ffffff" />
    <path
       id="path863"
       d="m 144.532,26.8348 0.876,1.235 2.655,-0.0518 0.511,0.7204 -2.655,0.0518 1.899,2.6759 c 0.438,0.6175 1.066,0.9183 2.087,0.8984 0.408,-0.008 0.816,-0.0159 0.947,-0.1228 l 0.512,0.7204 c -0.336,0.1109 -0.744,0.1189 -1.561,0.1348 -0.817,0.0159 -1.502,-0.075 -2.13,-0.3758 -0.627,-0.3008 -1.124,-0.7085 -1.562,-1.326 l -1.898,-2.6759 -1.43,0.0279 -0.511,-0.7205 1.429,-0.0278 -0.657,-0.9263 z"
       inkscape:connector-curvature="0"
       style="fill:#ffffff" />
  </g>
</svg>
