<svg width="564" height="364" viewBox="0 0 564 364" fill="none" xmlns="http://www.w3.org/2000/svg">
<g filter="url(#filter0_d_578_188411)">
<rect x="13.5068" y="3.99219" width="537.496" height="337.747" rx="19.975" fill="black"/>
</g>
<path d="M383.411 247.797H402.256C404.666 247.797 406.858 249.331 407.296 252.179L411.898 276.941L423.512 247.797H435.125L417.157 290.746H405.324L396.559 256.562C396.12 254.371 395.463 253.713 393.929 252.837C391.3 251.303 386.917 249.988 382.973 249.112" fill="white"/>
<path d="M481.143 276.721C481.143 265.327 465.585 264.669 465.585 259.629C465.585 258.095 467.119 256.562 470.186 256.123C471.72 255.904 476.103 255.685 481.143 258.095L483.115 248.892C480.485 248.016 476.979 246.92 472.816 246.92C461.86 246.92 454.19 252.836 453.971 261.163C453.971 267.299 459.449 270.805 463.613 272.777C467.995 274.968 469.31 276.283 469.31 278.036C469.31 280.885 465.804 282.2 462.736 282.2C457.258 282.2 453.971 280.666 451.341 279.57L449.369 288.993C451.999 290.088 456.82 291.184 461.64 291.184C473.473 291.403 481.143 285.706 481.143 276.721Z" fill="white"/>
<path d="M510.068 290.746H520.367L511.383 247.797H501.96C499.769 247.797 498.016 249.112 497.139 250.865L480.485 290.527H492.099L494.51 284.172H508.753L510.068 290.746Z" fill="white"/>
<path d="M497.797 275.407L503.494 259.41L507 275.407H497.797Z" fill="black"/>
<path d="M451.123 247.797L441.92 290.746H430.744L439.948 247.797H451.123Z" fill="white"/>
<path d="M470.186 301.705C471.282 301.486 472.815 301.486 474.13 301.486C476.76 301.486 478.732 302.144 480.047 303.239C481.361 304.335 482.238 306.088 482.238 308.498C482.238 310.909 481.581 312.881 480.047 314.196C478.732 315.511 476.322 316.387 473.473 316.387C472.158 316.387 471.062 316.387 469.967 316.168V301.705H470.186ZM471.939 314.634C472.377 314.634 473.035 314.634 473.911 314.634C478.075 314.634 480.266 312.443 480.266 308.498C480.266 304.992 478.294 302.801 474.349 302.801C473.473 302.801 472.596 302.801 472.158 303.02V314.634H471.939Z" fill="white"/>
<path d="M486.183 311.127C486.183 313.757 487.936 314.852 489.908 314.852C491.223 314.852 492.099 314.633 492.757 314.414L493.195 315.729C492.537 315.948 491.442 316.386 489.689 316.386C486.402 316.386 484.43 314.195 484.43 311.127C484.43 307.84 486.402 305.43 489.47 305.43C492.976 305.43 493.852 308.497 493.852 310.47C493.852 310.908 493.852 311.127 493.852 311.346H486.183V311.127ZM491.88 309.812C491.88 308.717 491.442 306.744 489.251 306.744C487.278 306.744 486.402 308.497 486.402 309.812H491.88Z" fill="white"/>
<path d="M496.701 300.607H498.673V307.181C499.331 306.086 500.645 305.209 502.179 305.209C504.809 305.209 506.562 307.4 506.562 310.468C506.562 314.193 504.152 316.166 501.741 316.166C500.207 316.166 498.892 315.508 498.235 314.193L498.016 315.946H496.701C496.701 315.289 496.701 314.193 496.701 313.317V300.607ZM498.673 312.002C498.673 312.221 498.673 312.44 498.673 312.66C499.112 313.974 500.207 314.851 501.522 314.851C503.494 314.851 504.809 313.317 504.809 310.687C504.809 308.496 503.713 306.743 501.741 306.743C500.426 306.743 499.331 307.62 498.892 309.153C498.892 309.373 498.892 309.592 498.892 310.03V312.002H498.673Z" fill="white"/>
<path d="M511.82 302.582C511.82 303.239 511.381 303.678 510.505 303.678C509.847 303.678 509.409 303.239 509.409 302.582C509.409 301.925 509.847 301.486 510.505 301.486C511.381 301.486 511.82 301.925 511.82 302.582ZM509.628 305.65H511.6V316.168H509.628V305.65Z" fill="white"/>
<path d="M517.519 303.018V305.647H520.368V307.181H517.519V312.878C517.519 314.193 517.958 314.851 519.053 314.851C519.492 314.851 519.93 314.851 520.149 314.631V316.165C519.711 316.384 519.272 316.384 518.396 316.384C517.519 316.384 516.862 316.165 516.424 315.508C515.985 314.851 515.766 313.974 515.766 312.659V306.962H514.232V305.428H515.766V303.456L517.519 303.018Z" fill="white"/>
<rect x="76.5198" y="123.083" width="64.9028" height="49.1497" rx="9.45187" fill="url(#paint0_linear_578_188411)" stroke="#666666" stroke-width="1.26025"/>
<path fill-rule="evenodd" clip-rule="evenodd" d="M118.271 133.519C116.01 129.004 112.457 125.458 110.121 124.072C109.966 123.983 109.854 123.836 109.807 123.663C109.761 123.491 109.786 123.307 109.875 123.152C109.964 122.998 110.112 122.885 110.284 122.839C110.456 122.793 110.64 122.817 110.795 122.907C113.856 124.702 117.414 128.821 119.455 132.89C119.504 132.967 119.535 133.055 119.547 133.147C119.558 133.238 119.55 133.331 119.522 133.418C119.493 133.506 119.446 133.587 119.383 133.654C119.321 133.722 119.244 133.774 119.159 133.809C119.068 133.858 118.966 133.884 118.863 133.885C118.74 133.885 118.619 133.851 118.515 133.786C118.41 133.722 118.326 133.629 118.271 133.519ZM97.8013 155.129C97.8453 161.389 103.734 168.853 107.79 171.265C107.869 171.306 107.937 171.363 107.992 171.432C108.047 171.501 108.087 171.581 108.109 171.667C108.131 171.752 108.135 171.841 108.12 171.928C108.105 172.015 108.072 172.098 108.023 172.172C107.964 172.271 107.88 172.353 107.78 172.411C107.679 172.468 107.566 172.499 107.45 172.499C107.332 172.5 107.217 172.467 107.116 172.405C102.789 169.854 96.8691 162.397 96.4912 155.721H76.551C76.3859 155.705 76.2327 155.628 76.1213 155.505C76.0098 155.382 75.9481 155.222 75.9481 155.056C75.9481 154.891 76.0098 154.731 76.1213 154.608C76.2327 154.485 76.3859 154.408 76.551 154.392H96.6172C97.8739 149.987 97.8739 145.319 96.6172 140.914H76.551C76.3756 140.914 76.2074 140.844 76.0833 140.72C75.9593 140.596 75.8896 140.428 75.8896 140.252C75.8896 140.077 75.9593 139.909 76.0833 139.785C76.2074 139.661 76.3756 139.591 76.551 139.591H96.4912C96.8691 132.89 102.815 125.458 107.116 122.907C107.271 122.818 107.455 122.793 107.627 122.839C107.799 122.885 107.947 122.998 108.036 123.153C108.125 123.307 108.15 123.491 108.104 123.663C108.057 123.836 107.945 123.983 107.79 124.072C103.734 126.453 97.8453 133.923 97.8013 140.189C99.2438 145.065 99.2438 150.254 97.8013 155.129ZM141.392 154.392H121.288C120.031 149.987 120.031 145.319 121.288 140.914H141.392C141.567 140.914 141.735 140.844 141.859 140.72C141.983 140.596 142.053 140.428 142.053 140.252C142.053 140.077 141.983 139.909 141.859 139.785C141.735 139.661 141.567 139.591 141.392 139.591H120.777C120.634 139.593 120.495 139.641 120.382 139.728C120.268 139.816 120.186 139.938 120.148 140.076C118.683 144.987 118.683 150.218 120.148 155.129C120.104 161.389 114.215 168.853 110.159 171.265C110.078 171.303 110.007 171.359 109.95 171.427C109.892 171.495 109.85 171.575 109.825 171.66C109.801 171.746 109.795 171.836 109.808 171.924C109.821 172.012 109.852 172.097 109.9 172.172C109.96 172.271 110.044 172.353 110.144 172.411C110.244 172.468 110.358 172.499 110.474 172.499C110.591 172.5 110.707 172.467 110.807 172.405C115.109 169.886 121.055 162.397 121.432 155.721H141.392C141.557 155.705 141.71 155.628 141.821 155.505C141.933 155.382 141.994 155.222 141.994 155.056C141.994 154.891 141.933 154.731 141.821 154.608C141.71 154.485 141.557 154.408 141.392 154.392ZM108.297 126.514C108.492 126.384 108.721 126.314 108.955 126.314C109.269 126.314 109.571 126.439 109.793 126.661C110.015 126.883 110.139 127.184 110.139 127.498C110.139 127.732 110.07 127.961 109.94 128.156C109.81 128.351 109.625 128.502 109.408 128.592C109.192 128.682 108.954 128.705 108.724 128.659C108.495 128.614 108.284 128.501 108.118 128.335C107.952 128.17 107.84 127.959 107.794 127.729C107.748 127.499 107.772 127.261 107.861 127.045C107.951 126.829 108.103 126.644 108.297 126.514Z" fill="#666666"/>
<path d="M158.484 143.346C158.339 143.15 158.235 142.928 158.176 142.691C158.117 142.455 158.106 142.209 158.142 141.968C158.215 141.482 158.478 141.044 158.874 140.752C159.27 140.46 159.765 140.337 160.252 140.41C160.738 140.483 161.176 140.747 161.468 141.142C162.153 142.062 162.689 143.085 163.055 144.172C163.436 145.3 163.629 146.482 163.627 147.673C163.628 148.86 163.435 150.04 163.055 151.165C162.689 152.252 162.153 153.274 161.468 154.194C161.176 154.59 160.738 154.853 160.252 154.926C159.765 155 159.27 154.876 158.874 154.584C158.478 154.292 158.215 153.854 158.142 153.368C158.069 152.881 158.192 152.386 158.484 151.99C158.937 151.387 159.292 150.717 159.536 150.004C159.796 149.254 159.931 148.466 159.935 147.673C159.938 146.884 159.813 146.099 159.563 145.351C159.313 144.629 158.948 143.953 158.484 143.346ZM164.833 139.891C166.277 142.229 167.037 144.925 167.028 147.673C167.04 150.416 166.286 153.108 164.851 155.446C164.723 155.653 164.637 155.884 164.598 156.124C164.559 156.364 164.568 156.61 164.624 156.847C164.68 157.084 164.782 157.308 164.925 157.506C165.067 157.703 165.247 157.871 165.454 157.999C165.662 158.127 165.892 158.213 166.133 158.252C166.373 158.291 166.619 158.282 166.856 158.226C167.093 158.17 167.317 158.068 167.514 157.926C167.712 157.783 167.88 157.603 168.008 157.396C169.806 154.473 170.749 151.104 170.729 147.673C170.75 144.238 169.807 140.866 168.008 137.94C167.88 137.733 167.712 137.553 167.514 137.411C167.317 137.268 167.093 137.166 166.856 137.11C166.619 137.054 166.373 137.045 166.133 137.084C165.892 137.123 165.662 137.209 165.454 137.337C165.247 137.465 165.067 137.633 164.925 137.831C164.782 138.028 164.68 138.252 164.624 138.489C164.568 138.726 164.559 138.972 164.598 139.212C164.637 139.453 164.723 139.683 164.851 139.891H164.833ZM171.59 136.399C173.594 139.831 174.649 143.734 174.647 147.709C174.648 151.681 173.593 155.581 171.59 159.01C171.467 159.221 171.386 159.453 171.353 159.694C171.319 159.936 171.334 160.181 171.395 160.417C171.457 160.653 171.564 160.875 171.711 161.069C171.858 161.263 172.042 161.427 172.252 161.55C172.463 161.673 172.695 161.754 172.936 161.787C173.178 161.821 173.424 161.806 173.659 161.745C173.895 161.683 174.117 161.576 174.311 161.429C174.505 161.282 174.669 161.098 174.792 160.888C177.134 156.894 178.364 152.347 178.357 147.718C178.372 143.072 177.144 138.506 174.801 134.494C174.549 134.068 174.137 133.76 173.657 133.638C173.178 133.515 172.669 133.588 172.243 133.841C171.818 134.093 171.51 134.505 171.387 134.984C171.265 135.464 171.338 135.973 171.59 136.399ZM178.32 132.861C180.898 137.384 182.249 142.503 182.239 147.709C182.248 152.912 180.897 158.027 178.32 162.548C178.201 162.759 178.125 162.992 178.096 163.233C178.067 163.474 178.085 163.718 178.151 163.952C178.216 164.186 178.326 164.404 178.476 164.595C178.626 164.786 178.812 164.946 179.023 165.065C179.235 165.184 179.467 165.26 179.708 165.289C179.949 165.318 180.194 165.3 180.427 165.234C180.661 165.169 180.88 165.059 181.071 164.909C181.262 164.759 181.421 164.573 181.54 164.362C184.435 159.28 185.954 153.53 185.948 147.682C185.962 141.818 184.442 136.052 181.54 130.956C181.3 130.529 180.899 130.216 180.427 130.084C179.955 129.952 179.45 130.013 179.023 130.254C178.596 130.494 178.282 130.894 178.151 131.366C178.019 131.838 178.08 132.344 178.32 132.771" fill="white"/>
<rect opacity="0.6" x="13.5068" y="3.99219" width="537.497" height="337.747" rx="18.7976" fill="url(#paint1_linear_578_188411)"/>
<defs>
<filter id="filter0_d_578_188411" x="0.904344" y="0.841564" width="562.701" height="362.951" filterUnits="userSpaceOnUse" color-interpolation-filters="sRGB">
<feFlood flood-opacity="0" result="BackgroundImageFix"/>
<feColorMatrix in="SourceAlpha" type="matrix" values="0 0 0 0 0 0 0 0 0 0 0 0 0 0 0 0 0 0 127 0" result="hardAlpha"/>
<feOffset dy="9.45187"/>
<feGaussianBlur stdDeviation="6.30125"/>
<feColorMatrix type="matrix" values="0 0 0 0 0 0 0 0 0 0 0 0 0 0 0 0 0 0 0.2 0"/>
<feBlend mode="normal" in2="BackgroundImageFix" result="effect1_dropShadow_578_188411"/>
<feBlend mode="normal" in="SourceGraphic" in2="effect1_dropShadow_578_188411" result="shape"/>
</filter>
<linearGradient id="paint0_linear_578_188411" x1="69.5884" y1="122.453" x2="147.409" y2="172.863" gradientUnits="userSpaceOnUse">
<stop stop-color="#DDD9D6"/>
<stop offset="0.212761" stop-color="#8A868C"/>
<stop offset="0.548384" stop-color="#F2F3F3" stop-opacity="0.8"/>
<stop offset="0.914316" stop-color="#807C80"/>
<stop offset="1" stop-color="#A6A8AB"/>
</linearGradient>
<linearGradient id="paint1_linear_578_188411" x1="13.5068" y1="341.739" x2="124.131" y2="-102.345" gradientUnits="userSpaceOnUse">
<stop stop-color="white" stop-opacity="0.5"/>
<stop offset="0.390033" stop-color="white" stop-opacity="0.33"/>
<stop offset="1" stop-color="white" stop-opacity="0"/>
</linearGradient>
</defs>
</svg>
