<svg width="21" height="20" viewBox="0 0 21 20" fill="none" xmlns="http://www.w3.org/2000/svg">
<path fill-rule="evenodd" clip-rule="evenodd" d="M15.0862 16.2274C15.0862 16.7858 14.8644 17.3213 14.4696 17.7161C14.0748 18.1109 13.5393 18.3327 12.981 18.3327H5.96343C5.40508 18.3327 4.8696 18.1109 4.47479 17.7161C4.07997 17.3213 3.85817 16.7858 3.85817 16.2274V6.40286C3.85817 5.84451 4.07997 5.30903 4.47479 4.91421C4.8696 4.5194 5.40508 4.29759 5.96343 4.29759V5.7011C5.77732 5.7011 5.59882 5.77504 5.46722 5.90664C5.33561 6.03825 5.26168 6.21674 5.26168 6.40286V16.2274C5.26168 16.4135 5.33561 16.592 5.46722 16.7236C5.59882 16.8552 5.77732 16.9292 5.96343 16.9292H12.981C13.1671 16.9292 13.3456 16.8552 13.4772 16.7236C13.6088 16.592 13.6827 16.4135 13.6827 16.2274H15.0862Z" fill="#FF6E33"/>
<path d="M17.7178 6.53619C17.7105 6.47172 17.6964 6.40821 17.6757 6.34672V6.28356C17.642 6.21141 17.597 6.14508 17.5424 6.08707L13.3319 1.87654C13.2738 1.82196 13.2075 1.77695 13.1354 1.74321H13.0722C13.0009 1.70233 12.9222 1.67608 12.8406 1.66602H8.59501C8.03666 1.66602 7.50118 1.88782 7.10637 2.28263C6.71155 2.67745 6.48975 3.21293 6.48975 3.77128V13.5958C6.48975 14.1542 6.71155 14.6897 7.10637 15.0845C7.50118 15.4793 8.03666 15.7011 8.59501 15.7011H15.6126C16.1709 15.7011 16.7064 15.4793 17.1012 15.0845C17.496 14.6897 17.7178 14.1542 17.7178 13.5958V6.5783C17.7178 6.5783 17.7178 6.5783 17.7178 6.53619ZM13.5073 4.059L15.3248 5.87654H14.209C14.0229 5.87654 13.8444 5.80261 13.7128 5.671C13.5812 5.5394 13.5073 5.3609 13.5073 5.17479V4.059ZM16.3143 13.5958C16.3143 13.782 16.2404 13.9605 16.1088 14.0921C15.9772 14.2237 15.7987 14.2976 15.6126 14.2976H8.59501C8.4089 14.2976 8.2304 14.2237 8.0988 14.0921C7.96719 13.9605 7.89326 13.782 7.89326 13.5958V3.77128C7.89326 3.58516 7.96719 3.40667 8.0988 3.27506C8.2304 3.14346 8.4089 3.06952 8.59501 3.06952H12.1038V5.17479C12.1038 5.73314 12.3256 6.26862 12.7204 6.66343C13.1152 7.05825 13.6507 7.28005 14.209 7.28005H16.3143V13.5958Z" fill="#FF6E33"/>
</svg>
