<svg width="25" height="24" viewBox="0 0 25 24" fill="none" xmlns="http://www.w3.org/2000/svg">
<path fill-rule="evenodd" clip-rule="evenodd" d="M13.2069 22H3.62859C3.33581 21.9999 3.05507 21.8835 2.84809 21.6764C2.64111 21.4694 2.52484 21.1886 2.52484 20.8958V3.10416C2.52479 2.95915 2.55331 2.81554 2.60878 2.68155C2.66425 2.54756 2.74558 2.42583 2.84812 2.32328C2.95066 2.22074 3.07241 2.13941 3.20639 2.08394C3.34038 2.02847 3.48399 1.99995 3.62901 2H21.4211C21.5661 2 21.7096 2.02856 21.8436 2.08406C21.9775 2.13955 22.0992 2.22089 22.2017 2.32343C22.3042 2.42597 22.3855 2.54769 22.4409 2.68165C22.4964 2.81562 22.5249 2.95918 22.5248 3.10416V20.8958C22.5248 21.1886 22.4086 21.4694 22.2016 21.6764C21.9946 21.8835 21.7139 21.9999 21.4211 22H16.3244V14.255H18.9244L19.3136 11.2367H16.3244V9.30958C16.3244 8.43542 16.5673 7.84 17.8203 7.84L19.4186 7.83917V5.13958C19.1423 5.10292 18.1936 5.02083 17.0894 5.02083C14.7853 5.02083 13.2073 6.4275 13.2073 9.01042V11.2367H10.6011V14.255H13.2073V22H13.2069Z" fill="white"/>
</svg>
