<svg width="25" height="24" viewBox="0 0 25 24" fill="none" xmlns="http://www.w3.org/2000/svg">
<g clip-path="url(#clip0_506_187709)">
<path d="M7.70103 20.6121H4.11057V9.0659H7.70103V20.6121Z" fill="white"/>
<path d="M21.1369 20.6121H17.5512V14.9996C17.5512 13.6626 17.5275 11.9383 15.6851 11.9383C13.819 11.9383 13.5355 13.3981 13.5355 14.9051V20.6121H9.95451V9.0659H13.3938V10.6438H13.441C13.9182 9.73675 15.0898 8.77772 16.8331 8.77772C20.466 8.77772 21.1369 11.1682 21.1369 14.2768V20.6121Z" fill="white"/>
<path d="M5.9058 7.49272C4.75308 7.49272 3.82239 6.56203 3.82239 5.41403C3.82239 4.26603 4.75308 3.33534 5.9058 3.33534C7.0538 3.33534 7.98449 4.26603 7.98449 5.41403C7.98449 6.55731 7.0538 7.49272 5.9058 7.49272Z" fill="white"/>
</g>
<defs>
<clipPath id="clip0_506_187709">
<rect width="24" height="24" fill="white" transform="translate(0.524841)"/>
</clipPath>
</defs>
</svg>
