<svg width="166" height="81" viewBox="0 0 166 81" fill="none" xmlns="http://www.w3.org/2000/svg">
<path fill-rule="evenodd" clip-rule="evenodd" d="M64.248 45.7891C68.7298 45.7891 73.4386 45.2945 78.3723 44.3094V36.3715C72.8568 37.6749 68.5067 38.3236 65.3243 38.3236C58.102 38.3236 54.4939 36.3512 54.4939 32.4026V13.8391C54.4939 12.5843 54.7513 11.5627 55.2683 10.7782C55.7811 9.99377 56.5676 9.4222 57.6216 9.0634C58.6757 8.7046 59.6831 8.48164 60.648 8.39044C61.6108 8.30122 62.8575 8.25664 64.3817 8.25664C68.1926 8.25664 72.7655 8.88502 78.1027 10.1397V2.26879C72.1838 1.28366 67.5642 0.789062 64.248 0.789062C50.75 0.789062 44 5.18569 44 13.9729V33.1445C44 35.2972 44.4703 37.1702 45.4128 38.7614C46.3554 40.3526 47.5088 41.585 48.877 42.4587C50.2453 43.3343 51.9034 44.0297 53.8554 44.5445C55.8054 45.0614 57.577 45.3958 59.1683 45.5539C60.7595 45.71 62.452 45.7891 64.248 45.7891ZM117.048 45.1167H85.0978V1.46266H95.5917V37.6492H117.048V45.1167ZM118.153 6.96739V2.58293H119.229L120.338 6.08563L121.407 2.58293H122.461V6.96739H121.796V3.28833L120.665 6.96739H120.004L118.827 3.2336V6.96739H118.153ZM115.5 6.96737V3.23359H114.081V2.58291H117.663V3.23359H116.231V6.96737H115.5Z" fill="white"/>
<path d="M7.24123 67.0621C7.24123 68.2182 6.84546 69.1086 6.0539 69.7336C5.26753 70.3532 4.14008 70.6631 2.67153 70.6631H1.32796V75.1547H0V63.7344H2.96054C5.81434 63.7344 7.24123 64.8436 7.24123 67.0621ZM1.32796 69.5227H2.52311C3.70003 69.5227 4.55148 69.3326 5.07746 68.9523C5.60344 68.5723 5.86641 67.963 5.86641 67.1246C5.86641 66.3694 5.61906 65.807 5.12433 65.4372C4.6296 65.0675 3.85887 64.8826 2.81214 64.8826H1.32796V69.5227Z" fill="white"/>
<path d="M17.3144 70.8686C17.3144 72.2643 16.9628 73.3552 16.2599 74.1416C15.5567 74.9227 14.5855 75.3133 13.3461 75.3133C12.5806 75.3133 11.9011 75.1336 11.3073 74.7743C10.7137 74.4149 10.2555 73.8994 9.93256 73.2276C9.60969 72.5558 9.44824 71.7695 9.44824 70.8686C9.44824 69.4729 9.79716 68.3872 10.495 67.6112C11.1928 66.8301 12.1615 66.4395 13.4009 66.4395C14.5986 66.4395 15.549 66.8379 16.252 67.6346C16.9603 68.4315 17.3144 69.5094 17.3144 70.8686ZM10.7918 70.8686C10.7918 71.9622 11.0106 72.7954 11.448 73.3682C11.8854 73.9411 12.5286 74.2275 13.3774 74.2275C14.2263 74.2275 14.8694 73.9436 15.3068 73.376C15.7495 72.8033 15.9708 71.9674 15.9708 70.8686C15.9708 69.7802 15.7495 68.9547 15.3068 68.3924C14.8694 67.8247 14.2211 67.5409 13.3618 67.5409C12.5129 67.5409 11.8724 67.8195 11.4402 68.3767C11.0079 68.9339 10.7918 69.7646 10.7918 70.8686Z" fill="white"/>
<path d="M27.0653 75.1571L25.4951 70.1343C25.3962 69.827 25.2114 69.1292 24.9405 68.0408H24.8781C24.6697 68.9522 24.4875 69.6552 24.3312 70.1499L22.7143 75.1571H21.2145L18.8789 66.5957H20.2381C20.7901 68.7465 21.2093 70.3843 21.4956 71.5092C21.7873 72.634 21.954 73.3917 21.9956 73.7822H22.0581C22.1154 73.4854 22.2066 73.1027 22.3315 72.634C22.4618 72.16 22.5736 71.7851 22.6675 71.5092L24.2375 66.5957H25.6436L27.1746 71.5092C27.4663 72.4048 27.6641 73.1574 27.7682 73.7666H27.8308C27.8516 73.5792 27.9062 73.2901 27.9947 72.8995C28.0886 72.509 28.6328 70.4077 29.6275 66.5957H30.971L28.6041 75.1571H27.0653Z" fill="white"/>
<path d="M36.6225 75.3133C35.3571 75.3133 34.3572 74.9279 33.6229 74.1572C32.8938 73.3865 32.5293 72.3163 32.5293 70.9467C32.5293 69.5666 32.8678 68.4705 33.5448 67.6581C34.2269 66.8457 35.1408 66.4395 36.2865 66.4395C37.3593 66.4395 38.2081 66.7937 38.8331 67.5018C39.458 68.2048 39.7705 69.1344 39.7705 70.2905V71.1107H33.8729C33.8988 72.1158 34.1515 72.8787 34.6305 73.3994C35.1148 73.9203 35.7945 74.1807 36.6693 74.1807C37.591 74.1807 38.5024 73.9879 39.4033 73.6026V74.7587C38.9451 74.9566 38.5102 75.0972 38.0988 75.1805C37.6926 75.2691 37.2005 75.3133 36.6225 75.3133ZM36.2709 67.5253C35.5836 67.5253 35.0342 67.7491 34.6228 68.1971C34.2165 68.6449 33.977 69.2647 33.904 70.0562H38.38C38.38 69.2385 38.1977 68.6137 37.8333 68.1815C37.4686 67.7439 36.9479 67.5253 36.2709 67.5253Z" fill="white"/>
<path d="M46.3755 66.4395C46.7556 66.4395 47.0967 66.4708 47.3987 66.5332L47.2191 67.7362C46.8649 67.6581 46.5525 67.619 46.2816 67.619C45.589 67.619 44.9954 67.9002 44.5007 68.4626C44.0111 69.0251 43.7664 69.7255 43.7664 70.564V75.1571H42.4697V66.5957H43.5399L43.6882 68.1815H43.7508C44.0684 67.6242 44.4512 67.1945 44.899 66.8926C45.3469 66.5905 45.839 66.4395 46.3755 66.4395Z" fill="white"/>
<path d="M53.0961 75.3133C51.8307 75.3133 50.8308 74.9279 50.0965 74.1572C49.3674 73.3865 49.0029 72.3163 49.0029 70.9467C49.0029 69.5666 49.3414 68.4705 50.0184 67.6581C50.7006 66.8457 51.6146 66.4395 52.7602 66.4395C53.8329 66.4395 54.6818 66.7937 55.3067 67.5018C55.9316 68.2048 56.2441 69.1344 56.2441 70.2905V71.1107H50.3465C50.3725 72.1158 50.6251 72.8787 51.1042 73.3994C51.5884 73.9203 52.2681 74.1807 53.143 74.1807C54.0648 74.1807 54.9761 73.9879 55.8769 73.6026V74.7587C55.4187 74.9566 54.9839 75.0972 54.5724 75.1805C54.1662 75.2691 53.6742 75.3133 53.0961 75.3133ZM52.7446 67.5253C52.0572 67.5253 51.5078 67.7491 51.0964 68.1971C50.6902 68.6449 50.4506 69.2647 50.3777 70.0562H54.8537C54.8537 69.2385 54.6714 68.6137 54.3069 68.1815C53.9424 67.7439 53.4215 67.5253 52.7446 67.5253Z" fill="white"/>
<path d="M64.7706 74.0064H64.7002C64.1014 74.876 63.2058 75.3109 62.0131 75.3109C60.8935 75.3109 60.0213 74.9281 59.3963 74.1625C58.7766 73.397 58.4668 72.3086 58.4668 70.8973C58.4668 69.4861 58.7792 68.3899 59.4041 67.6087C60.029 66.8276 60.8987 66.437 62.0131 66.437C63.1744 66.437 64.065 66.8588 64.6846 67.7024H64.7862L64.7316 67.0854L64.7002 66.4839V63H65.997V75.1546H64.9425L64.7706 74.0064ZM62.1772 74.225C63.0625 74.225 63.703 73.9855 64.0988 73.5065C64.4999 73.0221 64.7002 72.2436 64.7002 71.1708V70.8973C64.7002 69.684 64.4972 68.8195 64.091 68.304C63.69 67.7832 63.0469 67.5229 62.1615 67.5229C61.4012 67.5229 60.818 67.8196 60.4117 68.4133C60.0109 69.0019 59.8104 69.8351 59.8104 70.9129C59.8104 72.0067 60.0109 72.832 60.4117 73.3893C60.8128 73.9464 61.4012 74.225 62.1772 74.225Z" fill="white"/>
<path d="M77.853 66.4526C78.9779 66.4526 79.8502 66.838 80.4699 67.6087C81.0948 68.3742 81.4072 69.4601 81.4072 70.8661C81.4072 72.2722 81.0922 73.3658 80.4621 74.1469C79.8371 74.9229 78.9675 75.3109 77.853 75.3109C77.2959 75.3109 76.7854 75.2093 76.322 75.0063C75.8637 74.7979 75.4784 74.4802 75.1659 74.0532H75.0722L74.7988 75.1546H73.8691V63H75.1659V65.9527C75.1659 66.614 75.1451 67.2077 75.1034 67.7338H75.1659C75.77 66.8797 76.6657 66.4526 77.853 66.4526ZM77.6656 67.5385C76.7802 67.5385 76.1423 67.7936 75.7518 68.304C75.3612 68.8091 75.1659 69.6631 75.1659 70.8661C75.1659 72.069 75.3664 72.9309 75.7674 73.4517C76.1684 73.9673 76.8116 74.225 77.6968 74.225C78.4936 74.225 79.0872 73.936 79.4779 73.3579C79.8683 72.7747 80.0637 71.9389 80.0637 70.8505C80.0637 69.736 79.8683 68.9055 79.4779 68.3586C79.0872 67.8119 78.4832 67.5385 77.6656 67.5385Z" fill="white"/>
<path d="M82.8018 66.5957H84.1922L86.0669 71.4778C86.4783 72.5924 86.7335 73.3969 86.8324 73.8917H86.895C86.9627 73.6261 87.1033 73.173 87.3168 72.5324C87.5355 71.8867 88.2437 69.9078 89.4415 66.5957H90.8319L87.1528 76.3444C86.7882 77.3079 86.3612 77.99 85.8716 78.3911C85.3874 78.7973 84.7911 79.0003 84.0828 79.0003C83.6871 79.0003 83.2965 78.956 82.9111 78.8675V77.8286C83.1976 77.8911 83.5178 77.9223 83.8719 77.9223C84.7624 77.9223 85.3978 77.4224 85.7779 76.4225L86.2544 75.2039L82.8018 66.5957Z" fill="white"/>
<path d="M155.805 79.5517V80.9997H165.743V74.4692H164.295V79.5517H155.805ZM155.805 58V59.448H164.295V64.5308H165.743V58H155.805ZM150.68 69.2019V65.8372H152.951C154.059 65.8372 154.457 66.2063 154.457 67.2144V67.8106C154.457 68.847 154.073 69.2019 152.951 69.2019H150.68ZM154.286 69.7981C155.322 69.5283 156.046 68.5628 156.046 67.413C156.046 66.689 155.762 66.0358 155.223 65.5104C154.541 64.8572 153.633 64.5308 152.454 64.5308H149.26V74.4689H150.68V70.508H152.81C153.903 70.508 154.343 70.9623 154.343 72.0983V74.4692H155.791V72.3254C155.791 70.7637 155.422 70.1675 154.286 69.997V69.7981ZM142.332 70.1245H146.705V68.8184H142.332V65.8369H147.131V64.5308H140.884V74.4689H147.344V73.1628H142.332V70.1245V70.1245ZM137.576 70.6499V71.3313C137.576 72.7652 137.05 73.2339 135.73 73.2339H135.418C134.097 73.2339 133.458 72.8078 133.458 70.8344V68.1652C133.458 66.1777 134.126 65.7657 135.446 65.7657H135.73C137.022 65.7657 137.433 66.2485 137.447 67.5831H139.009C138.867 65.6238 137.561 64.3889 135.602 64.3889C134.651 64.3889 133.856 64.6871 133.259 65.2548C132.365 66.0925 131.868 67.5123 131.868 69.4998C131.868 71.4165 132.294 72.8363 133.174 73.7164C133.77 74.2984 134.594 74.6108 135.403 74.6108C136.255 74.6108 137.036 74.2699 137.433 73.5318H137.632V74.4689H138.938V69.3438H135.091V70.6499H137.576ZM125.054 65.8369H126.602C128.064 65.8369 128.859 66.2059 128.859 68.1937V70.8059C128.859 72.7934 128.064 73.1628 126.602 73.1628H125.054V65.8369ZM126.729 74.4692C129.441 74.4692 130.449 72.4106 130.449 69.5002C130.449 66.5471 129.37 64.5311 126.701 64.5311H123.634V74.4692H126.729ZM116.777 70.1245H121.15V68.8184H116.777V65.8369H121.575V64.5308H115.329V74.4689H121.789V73.1628H116.777V70.1245ZM108.401 64.5308H106.953V74.4689H113.483V73.1628H108.401V64.5308ZM97 74.4692V81H106.938V79.5517H98.448V74.4692H97ZM97 58V64.5308H98.448V59.448H106.938V58H97Z" fill="white"/>
</svg>
