<svg width="275" height="83" viewBox="0 0 275 83" fill="none" xmlns="http://www.w3.org/2000/svg">
<path fill-rule="evenodd" clip-rule="evenodd" d="M119.248 45.7891C123.73 45.7891 128.439 45.2945 133.372 44.3093V36.3715C127.857 37.6749 123.507 38.3236 120.324 38.3236C113.102 38.3236 109.494 36.3512 109.494 32.4026V13.8391C109.494 12.5843 109.751 11.5627 110.268 10.7782C110.781 9.99377 111.568 9.4222 112.622 9.0634C113.676 8.7046 114.683 8.48164 115.648 8.39044C116.611 8.30122 117.857 8.25664 119.382 8.25664C123.193 8.25664 127.766 8.88502 133.103 10.1397V2.26879C127.184 1.28366 122.564 0.789062 119.248 0.789062C105.75 0.789062 99 5.18569 99 13.9729V33.1445C99 35.2972 99.4703 37.1702 100.413 38.7614C101.355 40.3526 102.509 41.585 103.877 42.4587C105.245 43.3343 106.903 44.0297 108.855 44.5445C110.805 45.0614 112.577 45.3958 114.168 45.5539C115.76 45.71 117.452 45.7891 119.248 45.7891ZM172.048 45.1167H140.098V1.46266H150.592V37.6492H172.048V45.1167ZM173.153 6.96739V2.58293H174.229L175.338 6.08563L176.407 2.58293H177.461V6.96739H176.796V3.28833L175.665 6.96739H175.004L173.827 3.2336V6.96739H173.153ZM170.5 6.96737V3.23359H169.081V2.58291H172.663V3.23359H171.231V6.96737H170.5Z" fill="white"/>
<path d="M70.2413 67.0621C70.2413 68.2182 69.8455 69.1086 69.0539 69.7336C68.2676 70.3532 67.1401 70.6631 65.6716 70.6631H64.328V75.1547H63V63.7344H65.9606C68.8144 63.7344 70.2413 64.8436 70.2413 67.0621ZM64.328 69.5227H65.5231C66.7001 69.5227 67.5515 69.3326 68.0775 68.9523C68.6035 68.5723 68.8664 67.963 68.8664 67.1246C68.8664 66.3694 68.6191 65.807 68.1243 65.4372C67.6296 65.0675 66.8589 64.8826 65.8122 64.8826H64.328V69.5227Z" fill="white"/>
<path d="M80.3146 70.8686C80.3146 72.2643 79.963 73.3552 79.2601 74.1416C78.557 74.9227 77.5858 75.3133 76.3463 75.3133C75.5808 75.3133 74.9013 75.1336 74.3075 74.7743C73.7139 74.4149 73.2557 73.8994 72.9328 73.2276C72.6099 72.5558 72.4485 71.7695 72.4485 70.8686C72.4485 69.4729 72.7974 68.3872 73.4952 67.6112C74.193 66.8301 75.1617 66.4395 76.4011 66.4395C77.5988 66.4395 78.5492 66.8379 79.2522 67.6346C79.9605 68.4315 80.3146 69.5094 80.3146 70.8686ZM73.792 70.8686C73.792 71.9622 74.0108 72.7954 74.4482 73.3682C74.8856 73.9411 75.5288 74.2275 76.3777 74.2275C77.2265 74.2275 77.8696 73.9436 78.307 73.376C78.7497 72.8033 78.971 71.9674 78.971 70.8686C78.971 69.7802 78.7497 68.9547 78.307 68.3924C77.8696 67.8247 77.2213 67.5409 76.3621 67.5409C75.5131 67.5409 74.8727 67.8195 74.4405 68.3767C74.0081 68.9339 73.792 69.7646 73.792 70.8686Z" fill="white"/>
<path d="M90.0653 75.1571L88.4951 70.1343C88.3962 69.827 88.2114 69.1292 87.9405 68.0408H87.8781C87.6697 68.9522 87.4875 69.6552 87.3313 70.1499L85.7143 75.1571H84.2145L81.8789 66.5957H83.2381C83.7901 68.7465 84.2093 70.3843 84.4956 71.5092C84.7873 72.634 84.954 73.3917 84.9956 73.7822H85.0581C85.1154 73.4854 85.2066 73.1027 85.3315 72.634C85.4618 72.16 85.5736 71.7851 85.6675 71.5092L87.2375 66.5957H88.6436L90.1746 71.5092C90.4663 72.4048 90.6641 73.1574 90.7683 73.7666H90.8308C90.8516 73.5792 90.9062 73.2901 90.9948 72.8995C91.0886 72.509 91.6328 70.4077 92.6275 66.5957H93.971L91.6042 75.1571H90.0653Z" fill="white"/>
<path d="M99.6229 75.3133C98.3575 75.3133 97.3576 74.9279 96.6233 74.1572C95.8942 73.3865 95.5297 72.3163 95.5297 70.9467C95.5297 69.5666 95.8682 68.4705 96.5452 67.6581C97.2273 66.8457 98.1412 66.4395 99.2869 66.4395C100.36 66.4395 101.209 66.7937 101.834 67.5018C102.458 68.2048 102.771 69.1344 102.771 70.2905V71.1107H96.8733C96.8993 72.1158 97.1519 72.8787 97.6309 73.3994C98.1152 73.9203 98.7949 74.1807 99.6697 74.1807C100.591 74.1807 101.503 73.9879 102.404 73.6026V74.7587C101.946 74.9566 101.511 75.0972 101.099 75.1805C100.693 75.2691 100.201 75.3133 99.6229 75.3133ZM99.2713 67.5253C98.584 67.5253 98.0346 67.7491 97.6232 68.1971C97.2169 68.6449 96.9774 69.2647 96.9045 70.0562H101.38C101.38 69.2385 101.198 68.6137 100.834 68.1815C100.469 67.7439 99.9483 67.5253 99.2713 67.5253Z" fill="white"/>
<path d="M109.375 66.4395C109.755 66.4395 110.097 66.4708 110.399 66.5332L110.219 67.7362C109.865 67.6581 109.552 67.619 109.281 67.619C108.589 67.619 107.995 67.9002 107.5 68.4626C107.011 69.0251 106.766 69.7255 106.766 70.564V75.1571H105.47V66.5957H106.54L106.688 68.1815H106.751C107.068 67.6242 107.451 67.1945 107.899 66.8926C108.347 66.5905 108.839 66.4395 109.375 66.4395Z" fill="white"/>
<path d="M116.096 75.3133C114.831 75.3133 113.831 74.9279 113.097 74.1572C112.368 73.3865 112.003 72.3163 112.003 70.9467C112.003 69.5666 112.342 68.4705 113.019 67.6581C113.701 66.8457 114.615 66.4395 115.76 66.4395C116.833 66.4395 117.682 66.7937 118.307 67.5018C118.932 68.2048 119.244 69.1344 119.244 70.2905V71.1107H113.347C113.373 72.1158 113.625 72.8787 114.104 73.3994C114.589 73.9203 115.268 74.1807 116.143 74.1807C117.065 74.1807 117.976 73.9879 118.877 73.6026V74.7587C118.419 74.9566 117.984 75.0972 117.573 75.1805C117.166 75.2691 116.674 75.3133 116.096 75.3133ZM115.745 67.5253C115.057 67.5253 114.508 67.7491 114.097 68.1971C113.69 68.6449 113.451 69.2647 113.378 70.0562H117.854C117.854 69.2385 117.672 68.6137 117.307 68.1815C116.943 67.7439 116.422 67.5253 115.745 67.5253Z" fill="white"/>
<path d="M127.77 74.0064H127.7C127.101 74.876 126.205 75.3109 125.013 75.3109C123.893 75.3109 123.021 74.9281 122.396 74.1625C121.776 73.397 121.466 72.3086 121.466 70.8973C121.466 69.4861 121.779 68.3899 122.404 67.6087C123.029 66.8276 123.898 66.437 125.013 66.437C126.174 66.437 127.065 66.8588 127.684 67.7024H127.786L127.731 67.0854L127.7 66.4839V63H128.997V75.1546H127.942L127.77 74.0064ZM125.177 74.225C126.062 74.225 126.703 73.9855 127.098 73.5065C127.499 73.0221 127.7 72.2436 127.7 71.1708V70.8973C127.7 69.684 127.497 68.8195 127.091 68.304C126.69 67.7832 126.046 67.5229 125.161 67.5229C124.401 67.5229 123.818 67.8196 123.411 68.4133C123.01 69.0019 122.81 69.8351 122.81 70.9129C122.81 72.0067 123.01 72.832 123.411 73.3893C123.812 73.9464 124.401 74.225 125.177 74.225Z" fill="white"/>
<path d="M140.853 66.4526C141.978 66.4526 142.85 66.838 143.469 67.6087C144.094 68.3742 144.407 69.4601 144.407 70.8661C144.407 72.2722 144.092 73.3658 143.462 74.1469C142.837 74.9229 141.967 75.3109 140.853 75.3109C140.296 75.3109 139.785 75.2093 139.322 75.0063C138.863 74.7979 138.478 74.4802 138.166 74.0532H138.072L137.798 75.1546H136.869V63H138.166V65.9527C138.166 66.614 138.145 67.2077 138.103 67.7338H138.166C138.77 66.8797 139.665 66.4526 140.853 66.4526ZM140.665 67.5385C139.78 67.5385 139.142 67.7936 138.751 68.304C138.361 68.8091 138.166 69.6631 138.166 70.8661C138.166 72.069 138.366 72.9309 138.767 73.4517C139.168 73.9673 139.811 74.225 140.696 74.225C141.493 74.225 142.087 73.936 142.477 73.3579C142.868 72.7747 143.063 71.9389 143.063 70.8505C143.063 69.736 142.868 68.9055 142.477 68.3586C142.087 67.8119 141.483 67.5385 140.665 67.5385Z" fill="white"/>
<path d="M145.802 66.5957H147.192L149.067 71.4778C149.478 72.5924 149.733 73.3969 149.832 73.8917H149.895C149.963 73.6261 150.103 73.173 150.317 72.5324C150.535 71.8867 151.244 69.9078 152.441 66.5957H153.832L150.153 76.3444C149.788 77.3079 149.361 77.99 148.871 78.3911C148.387 78.7973 147.791 79.0003 147.083 79.0003C146.687 79.0003 146.296 78.956 145.911 78.8675V77.8286C146.197 77.8911 146.518 77.9223 146.872 77.9223C147.762 77.9223 148.398 77.4224 148.778 76.4225L149.254 75.2039L145.802 66.5957Z" fill="white"/>
<path d="M160.533 75.1547V63.7344H161.861V73.9517H166.899V75.1547H160.533Z" fill="white"/>
<path d="M172.746 75.3133C171.481 75.3133 170.481 74.9279 169.747 74.1572C169.018 73.3865 168.653 72.3163 168.653 70.9467C168.653 69.5666 168.992 68.4705 169.669 67.6581C170.351 66.8457 171.265 66.4395 172.411 66.4395C173.483 66.4395 174.332 66.7937 174.957 67.5018C175.582 68.2048 175.894 69.1344 175.894 70.2905V71.1107H169.997C170.023 72.1158 170.275 72.8787 170.754 73.3994C171.239 73.9203 171.918 74.1807 172.793 74.1807C173.715 74.1807 174.626 73.9879 175.527 73.6026V74.7587C175.069 74.9566 174.634 75.0972 174.223 75.1805C173.817 75.2691 173.325 75.3133 172.746 75.3133ZM172.395 67.5253C171.708 67.5253 171.158 67.7491 170.747 68.1971C170.341 68.6449 170.101 69.2647 170.028 70.0562H174.504C174.504 69.2385 174.322 68.6137 173.957 68.1815C173.593 67.7439 173.072 67.5253 172.395 67.5253Z" fill="white"/>
<path d="M184.419 74.0064H184.348C183.75 74.876 182.854 75.3109 181.661 75.3109C180.542 75.3109 179.669 74.9281 179.044 74.1625C178.425 73.397 178.115 72.3086 178.115 70.8973C178.115 69.4861 178.427 68.3899 179.052 67.6087C179.677 66.8276 180.547 66.437 181.661 66.437C182.823 66.437 183.713 66.8588 184.333 67.7024H184.434L184.38 67.0854L184.348 66.4839V63H185.645V75.1546H184.591L184.419 74.0064ZM181.825 74.225C182.711 74.225 183.351 73.9855 183.747 73.5065C184.148 73.0221 184.348 72.2436 184.348 71.1708V70.8973C184.348 69.684 184.145 68.8195 183.739 68.304C183.338 67.7832 182.695 67.5229 181.81 67.5229C181.049 67.5229 180.466 67.8196 180.06 68.4133C179.659 69.0019 179.458 69.8351 179.458 70.9129C179.458 72.0067 179.659 72.832 180.06 73.3893C180.461 73.9464 181.049 74.225 181.825 74.225Z" fill="white"/>
<path d="M195.89 66.5957V67.4159L194.305 67.6034C194.45 67.7857 194.581 68.0252 194.695 68.322C194.81 68.6137 194.867 68.9443 194.867 69.3141C194.867 70.1525 194.581 70.8217 194.007 71.3216C193.435 71.8215 192.649 72.0715 191.649 72.0715C191.393 72.0715 191.154 72.0507 190.93 72.0091C190.378 72.3007 190.102 72.6678 190.102 73.1104C190.102 73.3448 190.198 73.5193 190.391 73.6338C190.584 73.7431 190.914 73.7979 191.383 73.7979H192.898C193.826 73.7979 194.537 73.9931 195.031 74.3837C195.531 74.7743 195.78 75.342 195.78 76.0867C195.78 77.0344 195.4 77.7557 194.641 78.2504C193.881 78.7503 192.771 79.0003 191.313 79.0003C190.193 79.0003 189.329 78.792 188.719 78.3753C188.115 77.9588 187.813 77.3702 187.813 76.6099C187.813 76.0892 187.98 75.6387 188.313 75.2587C188.647 74.8784 189.115 74.6206 189.719 74.4853C189.501 74.3864 189.316 74.2327 189.165 74.0244C189.019 73.8161 188.946 73.574 188.946 73.298C188.946 72.9855 189.029 72.7121 189.196 72.4777C189.363 72.2433 189.626 72.0168 189.985 71.7982C189.542 71.6158 189.18 71.306 188.899 70.8686C188.623 70.4312 188.485 69.9312 188.485 69.3688C188.485 68.4314 188.766 67.7101 189.329 67.2049C189.891 66.6946 190.688 66.4395 191.719 66.4395C192.167 66.4395 192.571 66.4916 192.93 66.5957H195.89ZM189.063 76.5943C189.063 77.0579 189.258 77.4093 189.649 77.6489C190.04 77.8884 190.599 78.0083 191.328 78.0083C192.417 78.0083 193.222 77.8442 193.742 77.5161C194.269 77.1932 194.531 76.7533 194.531 76.196C194.531 75.7325 194.389 75.4096 194.102 75.2273C193.815 75.0503 193.277 74.9618 192.485 74.9618H190.93C190.342 74.9618 189.883 75.1024 189.555 75.3836C189.227 75.6647 189.063 76.0684 189.063 76.5943ZM189.766 69.3376C189.766 69.9364 189.935 70.3894 190.274 70.6967C190.612 71.004 191.084 71.1576 191.688 71.1576C192.953 71.1576 193.586 70.543 193.586 69.3141C193.586 68.0278 192.945 67.3847 191.664 67.3847C191.055 67.3847 190.586 67.5488 190.258 67.8767C189.93 68.2048 189.766 68.6918 189.766 69.3376Z" fill="white"/>
<path d="M201.744 75.3133C200.479 75.3133 199.479 74.9279 198.745 74.1572C198.015 73.3865 197.65 72.3163 197.65 70.9467C197.65 69.5666 197.989 68.4705 198.666 67.6581C199.348 66.8457 200.262 66.4395 201.408 66.4395C202.48 66.4395 203.329 66.7937 203.954 67.5018C204.58 68.2048 204.892 69.1344 204.892 70.2905V71.1107H198.994C199.02 72.1158 199.272 72.8787 199.752 73.3994C200.236 73.9203 200.916 74.1807 201.791 74.1807C202.712 74.1807 203.624 73.9879 204.525 73.6026V74.7587C204.066 74.9566 203.632 75.0972 203.22 75.1805C202.813 75.2691 202.321 75.3133 201.744 75.3133ZM201.392 67.5253C200.704 67.5253 200.155 67.7491 199.744 68.1971C199.338 68.6449 199.098 69.2647 199.026 70.0562H203.501C203.501 69.2385 203.319 68.6137 202.955 68.1815C202.591 67.7439 202.069 67.5253 201.392 67.5253Z" fill="white"/>
<path d="M211.495 66.4395C211.875 66.4395 212.216 66.4708 212.518 66.5332L212.339 67.7362C211.984 67.6581 211.673 67.619 211.402 67.619C210.709 67.619 210.115 67.9002 209.621 68.4626C209.13 69.0251 208.886 69.7255 208.886 70.564V75.1571H207.589V66.5957H208.66L208.808 68.1815H208.87C209.188 67.6242 209.57 67.1945 210.018 66.8926C210.466 66.5905 210.958 66.4395 211.495 66.4395Z" fill="white"/>
<path d="M160.533 75.1547V63.7344H161.861V73.9517H166.899V75.1547H160.533Z" fill="#FF5300"/>
<path d="M172.746 75.3133C171.481 75.3133 170.481 74.9279 169.747 74.1572C169.018 73.3865 168.653 72.3163 168.653 70.9467C168.653 69.5666 168.992 68.4705 169.669 67.6581C170.351 66.8457 171.265 66.4395 172.411 66.4395C173.483 66.4395 174.332 66.7937 174.957 67.5018C175.582 68.2048 175.894 69.1344 175.894 70.2905V71.1107H169.997C170.023 72.1158 170.275 72.8787 170.754 73.3994C171.239 73.9203 171.918 74.1807 172.793 74.1807C173.715 74.1807 174.626 73.9879 175.527 73.6026V74.7587C175.069 74.9566 174.634 75.0972 174.223 75.1805C173.817 75.2691 173.325 75.3133 172.746 75.3133ZM172.395 67.5253C171.708 67.5253 171.158 67.7491 170.747 68.1971C170.341 68.6449 170.101 69.2647 170.028 70.0562H174.504C174.504 69.2385 174.322 68.6137 173.957 68.1815C173.593 67.7439 173.072 67.5253 172.395 67.5253Z" fill="#FF5300"/>
<path d="M184.419 74.0064H184.348C183.75 74.876 182.854 75.3109 181.661 75.3109C180.542 75.3109 179.669 74.9281 179.044 74.1625C178.425 73.397 178.115 72.3086 178.115 70.8973C178.115 69.4861 178.427 68.3899 179.052 67.6087C179.677 66.8276 180.547 66.437 181.661 66.437C182.823 66.437 183.713 66.8588 184.333 67.7024H184.434L184.38 67.0854L184.348 66.4839V63H185.645V75.1546H184.591L184.419 74.0064ZM181.825 74.225C182.711 74.225 183.351 73.9855 183.747 73.5065C184.148 73.0221 184.348 72.2436 184.348 71.1708V70.8973C184.348 69.684 184.145 68.8195 183.739 68.304C183.338 67.7832 182.695 67.5229 181.81 67.5229C181.049 67.5229 180.466 67.8196 180.06 68.4133C179.659 69.0019 179.458 69.8351 179.458 70.9129C179.458 72.0067 179.659 72.832 180.06 73.3893C180.461 73.9464 181.049 74.225 181.825 74.225Z" fill="#FF5300"/>
<path d="M195.89 66.5957V67.4159L194.305 67.6034C194.45 67.7857 194.581 68.0252 194.695 68.322C194.81 68.6137 194.867 68.9443 194.867 69.3141C194.867 70.1525 194.581 70.8217 194.007 71.3216C193.435 71.8215 192.649 72.0715 191.649 72.0715C191.393 72.0715 191.154 72.0507 190.93 72.0091C190.378 72.3007 190.102 72.6678 190.102 73.1104C190.102 73.3448 190.198 73.5193 190.391 73.6338C190.584 73.7431 190.914 73.7979 191.383 73.7979H192.898C193.826 73.7979 194.537 73.9931 195.031 74.3837C195.531 74.7743 195.78 75.342 195.78 76.0867C195.78 77.0344 195.4 77.7557 194.641 78.2504C193.881 78.7503 192.771 79.0003 191.313 79.0003C190.193 79.0003 189.329 78.792 188.719 78.3753C188.115 77.9588 187.813 77.3702 187.813 76.6099C187.813 76.0892 187.98 75.6387 188.313 75.2587C188.647 74.8784 189.115 74.6206 189.719 74.4853C189.501 74.3864 189.316 74.2327 189.165 74.0244C189.019 73.8161 188.946 73.574 188.946 73.298C188.946 72.9855 189.029 72.7121 189.196 72.4777C189.363 72.2433 189.626 72.0168 189.985 71.7982C189.542 71.6158 189.18 71.306 188.899 70.8686C188.623 70.4312 188.485 69.9312 188.485 69.3688C188.485 68.4314 188.766 67.7101 189.329 67.2049C189.891 66.6946 190.688 66.4395 191.719 66.4395C192.167 66.4395 192.571 66.4916 192.93 66.5957H195.89ZM189.063 76.5943C189.063 77.0579 189.258 77.4093 189.649 77.6489C190.04 77.8884 190.599 78.0083 191.328 78.0083C192.417 78.0083 193.222 77.8442 193.742 77.5161C194.269 77.1932 194.531 76.7533 194.531 76.196C194.531 75.7325 194.389 75.4096 194.102 75.2273C193.815 75.0503 193.277 74.9618 192.485 74.9618H190.93C190.342 74.9618 189.883 75.1024 189.555 75.3836C189.227 75.6647 189.063 76.0684 189.063 76.5943ZM189.766 69.3376C189.766 69.9364 189.935 70.3894 190.274 70.6967C190.612 71.004 191.084 71.1576 191.688 71.1576C192.953 71.1576 193.586 70.543 193.586 69.3141C193.586 68.0278 192.945 67.3847 191.664 67.3847C191.055 67.3847 190.586 67.5488 190.258 67.8767C189.93 68.2048 189.766 68.6918 189.766 69.3376Z" fill="#FF5300"/>
<path d="M201.744 75.3133C200.479 75.3133 199.479 74.9279 198.745 74.1572C198.015 73.3865 197.65 72.3163 197.65 70.9467C197.65 69.5666 197.989 68.4705 198.666 67.6581C199.348 66.8457 200.262 66.4395 201.408 66.4395C202.48 66.4395 203.329 66.7937 203.954 67.5018C204.58 68.2048 204.892 69.1344 204.892 70.2905V71.1107H198.994C199.02 72.1158 199.272 72.8787 199.752 73.3994C200.236 73.9203 200.916 74.1807 201.791 74.1807C202.712 74.1807 203.624 73.9879 204.525 73.6026V74.7587C204.066 74.9566 203.632 75.0972 203.22 75.1805C202.813 75.2691 202.321 75.3133 201.744 75.3133ZM201.392 67.5253C200.704 67.5253 200.155 67.7491 199.744 68.1971C199.338 68.6449 199.098 69.2647 199.026 70.0562H203.501C203.501 69.2385 203.319 68.6137 202.955 68.1815C202.591 67.7439 202.069 67.5253 201.392 67.5253Z" fill="#FF5300"/>
<path d="M211.495 66.4395C211.875 66.4395 212.216 66.4708 212.518 66.5332L212.339 67.7362C211.984 67.6581 211.673 67.619 211.402 67.619C210.709 67.619 210.115 67.9002 209.621 68.4626C209.13 69.0251 208.886 69.7255 208.886 70.564V75.1571H207.589V66.5957H208.66L208.808 68.1815H208.87C209.188 67.6242 209.57 67.1945 210.018 66.8926C210.466 66.5905 210.958 66.4395 211.495 66.4395Z" fill="#FF5300"/>
</svg>
