<svg width="15" height="23" viewBox="0 0 15 23" fill="none" xmlns="http://www.w3.org/2000/svg">
<path d="M6.66861 14.6586V18.5466L6.66861 18.6087C6.66857 19.3194 6.66853 19.9362 6.71641 20.3814C6.74053 20.6056 6.78496 20.882 6.89762 21.1341C7.02032 21.4086 7.28659 21.7778 7.79007 21.8887C8.29355 21.9996 8.69028 21.7765 8.91698 21.5789C9.12511 21.3974 9.28155 21.1653 9.39766 20.9719C9.62815 20.588 9.88722 20.0283 10.1858 19.3833L10.2119 19.327L12.4652 14.4597L12.497 14.391C12.9556 13.4006 13.3449 12.56 13.5521 11.8701C13.7682 11.1508 13.8619 10.3594 13.4288 9.61611C13.3914 9.55192 13.3514 9.4893 13.3088 9.4284C12.8163 8.72309 12.0587 8.47566 11.3152 8.36954C10.6206 8.2704 9.72349 8.26788 8.66861 8.26787V4.37992L8.66861 4.31786C8.66865 3.60709 8.66868 2.99036 8.6208 2.54516C8.59668 2.32088 8.55225 2.0445 8.4396 1.79243C8.3169 1.51787 8.05063 1.14868 7.54715 1.03778C7.04367 0.926892 6.64693 1.15006 6.42024 1.34766C6.2121 1.52908 6.05567 1.76122 5.93956 1.95461C5.70907 2.3385 5.45 2.89817 5.15142 3.54319C5.14277 3.56189 5.13407 3.58067 5.12535 3.59951L2.87197 8.4668L2.84016 8.53551C2.38158 9.52592 1.99235 10.3666 1.78513 11.0564C1.56905 11.7757 1.47533 12.5671 1.90843 13.3104C1.94583 13.3746 1.98584 13.4372 2.02837 13.4981C2.52095 14.2034 3.27849 14.4509 4.02202 14.557C4.71666 14.6561 5.61373 14.6586 6.66861 14.6586ZM8.18513 8.26154C8.1851 8.26153 8.18543 8.26157 8.18611 8.26167C8.18594 8.26165 8.18579 8.26163 8.18564 8.26161C8.18532 8.26157 8.18515 8.26154 8.18513 8.26154Z" stroke="black" stroke-width="2"/>
</svg>
