<svg width="25" height="24" viewBox="0 0 25 24" fill="none" xmlns="http://www.w3.org/2000/svg">
<path d="M9.34638 19.0717C15.8138 19.0717 19.3522 13.7122 19.3522 9.06586C19.3522 8.91519 19.3488 8.76117 19.3421 8.6105C20.0305 8.11272 20.6245 7.49614 21.0963 6.78974C20.4552 7.07496 19.7746 7.26123 19.0776 7.3422C19.8115 6.90232 20.3609 6.2113 20.6242 5.39722C19.9338 5.80636 19.1788 6.09497 18.3916 6.25068C17.8612 5.68707 17.1598 5.3139 16.396 5.18885C15.6323 5.06381 14.8486 5.19385 14.1661 5.55888C13.4836 5.92392 12.9404 6.50361 12.6204 7.20832C12.3005 7.91304 12.2216 8.70354 12.3959 9.4576C10.9981 9.38745 9.63051 9.02432 8.38197 8.39174C7.13343 7.75917 6.03177 6.87127 5.14839 5.78561C4.69941 6.5597 4.56203 7.4757 4.76415 8.34745C4.96628 9.2192 5.49275 9.98128 6.23656 10.4788C5.67815 10.4611 5.13197 10.3107 4.64315 10.0402V10.0837C4.64265 10.8961 4.92348 11.6835 5.43792 12.3122C5.95236 12.9409 6.66865 13.3721 7.46502 13.5324C6.94774 13.6739 6.40483 13.6945 5.8783 13.5926C6.10303 14.2913 6.54025 14.9023 7.12897 15.3405C7.71768 15.7787 8.4285 16.0221 9.16223 16.0368C7.91657 17.0153 6.37783 17.546 4.79382 17.5435C4.51291 17.5431 4.23227 17.5259 3.95341 17.492C5.5626 18.5243 7.43451 19.0727 9.34638 19.0717Z" fill="white"/>
</svg>
