<svg width="25" height="24" viewBox="0 0 25 24" fill="none" xmlns="http://www.w3.org/2000/svg">
<path d="M12.7062 2C7.28399 2 2.88797 6.36165 2.88797 11.7425C2.88797 13.5831 3.40279 15.3046 4.29685 16.7732L2.52484 22L7.96073 20.2731C9.36734 21.0448 10.9851 21.485 12.7062 21.485C18.1291 21.485 22.5248 17.1227 22.5248 11.7425C22.5248 6.36165 18.1291 2 12.7062 2ZM17.5884 15.4424C17.3574 16.015 16.3128 16.5376 15.8519 16.5617C15.3914 16.5861 15.3783 16.9186 12.8679 15.828C10.3579 14.7372 8.84774 12.085 8.72868 11.9142C8.60953 11.744 7.75636 10.5282 7.80239 9.3046C7.84873 8.0808 8.51877 7.50344 8.75792 7.2633C8.99681 7.02281 9.27069 6.97973 9.43792 6.97701C9.6356 6.97379 9.76364 6.97112 9.90993 6.97652C10.0561 6.98205 10.2756 6.94594 10.4657 7.45147C10.6557 7.95696 11.1105 9.19938 11.1687 9.32598C11.2268 9.45272 11.2628 9.59946 11.1732 9.76219C11.0834 9.92527 11.0374 10.0271 10.9071 10.1677C10.7761 10.3082 10.6315 10.4821 10.5146 10.5895C10.3843 10.7085 10.2481 10.8383 10.3852 11.0926C10.5221 11.3467 10.9947 12.1799 11.7146 12.8665C12.6398 13.7492 13.4377 14.0419 13.6832 14.1753C13.9294 14.3094 14.0764 14.2945 14.229 14.1338C14.381 13.9732 14.8826 13.4309 15.0592 13.1888C15.2358 12.946 15.4012 12.9936 15.6281 13.0848C15.8548 13.1764 17.0636 13.8239 17.3099 13.9576C17.5559 14.0911 17.7203 14.1598 17.7791 14.2657C17.8379 14.3719 17.8193 14.8697 17.5884 15.4424Z" fill="white"/>
</svg>
